<svg width="25" height="24" viewBox="0 0 25 24" fill="none" xmlns="http://www.w3.org/2000/svg">
<g id="Star">
<path id="Vector" d="M12.5215 17.8781L17.2465 20.8781C17.8559 21.2625 18.6059 20.6906 18.4278 19.9875L17.059 14.6063C17.022 14.4571 17.0279 14.3005 17.076 14.1546C17.1241 14.0086 17.2124 13.8792 17.3309 13.7813L21.5684 10.2469C22.1215 9.78752 21.8403 8.8594 21.1184 8.81252L15.5871 8.45627C15.4362 8.44749 15.2911 8.39494 15.1696 8.30503C15.048 8.21513 14.9553 8.09177 14.9028 7.95002L12.8403 2.75627C12.7857 2.60618 12.6862 2.47653 12.5554 2.38491C12.4246 2.29329 12.2687 2.24414 12.109 2.24414C11.9493 2.24414 11.7934 2.29329 11.6626 2.38491C11.5318 2.47653 11.4324 2.60618 11.3778 2.75627L9.31525 7.95002C9.26269 8.09177 9.16997 8.21513 9.04843 8.30503C8.9269 8.39494 8.7818 8.44749 8.63088 8.45627L3.09963 8.81252C2.37775 8.8594 2.0965 9.78752 2.64963 10.2469L6.88713 13.7813C7.00557 13.8792 7.09393 14.0086 7.14203 14.1546C7.19013 14.3005 7.19602 14.4571 7.15901 14.6063L5.89338 19.5938C5.67776 20.4375 6.57775 21.1219 7.29963 20.6625L11.6965 17.8781C11.8198 17.7997 11.9629 17.7581 12.109 17.7581C12.2551 17.7581 12.3982 17.7997 12.5215 17.8781Z" fill="#FFC27A"/>
</g>
</svg>
